<mxfile host="app.diagrams.net" modified="2023-09-27T14:44:12.855Z" agent="Mozilla/5.0 (Windows NT 10.0; Win64; x64) AppleWebKit/537.36 (KHTML, like Gecko) Chrome/116.0.0.0 Safari/537.36 OPR/102.0.0.0" etag="b6A2OVP5eWs5pzdIhczH" version="21.8.0" type="device">
  <diagram name="Страница — 1" id="ScLtDxasbSxd-riOsG_u">
    <mxGraphModel dx="4381" dy="-18" grid="1" gridSize="10" guides="1" tooltips="1" connect="1" arrows="1" fold="1" page="1" pageScale="1" pageWidth="827" pageHeight="1169" math="0" shadow="0">
      <root>
        <mxCell id="0" />
        <mxCell id="1" parent="0" />
        <mxCell id="WX2UYCiCcFjldHaah2Si-12" value="" style="rounded=0;whiteSpace=wrap;html=1;" vertex="1" parent="1">
          <mxGeometry x="-1900" y="2180" width="360" height="600" as="geometry" />
        </mxCell>
        <mxCell id="WX2UYCiCcFjldHaah2Si-13" value="" style="rounded=0;whiteSpace=wrap;html=1;" vertex="1" parent="1">
          <mxGeometry x="-1860" y="2290" width="280" height="440" as="geometry" />
        </mxCell>
        <mxCell id="WX2UYCiCcFjldHaah2Si-14" value="Температура навколишнього середовища" style="text;html=1;strokeColor=none;fillColor=none;align=center;verticalAlign=middle;whiteSpace=wrap;rounded=0;fontSize=36;" vertex="1" parent="1">
          <mxGeometry x="-1852.5" y="2310" width="265" height="160" as="geometry" />
        </mxCell>
        <mxCell id="WX2UYCiCcFjldHaah2Si-15" value="&lt;font style=&quot;font-size: 22px;&quot;&gt;Температура 24&lt;/font&gt;&lt;font style=&quot;font-size: 22px;&quot;&gt;℃&lt;/font&gt;" style="text;html=1;strokeColor=none;fillColor=none;align=center;verticalAlign=middle;whiteSpace=wrap;rounded=0;" vertex="1" parent="1">
          <mxGeometry x="-1820" y="2560" width="200" height="30" as="geometry" />
        </mxCell>
        <mxCell id="WX2UYCiCcFjldHaah2Si-16" value="&lt;font style=&quot;font-size: 16px;&quot;&gt;Температура&lt;/font&gt;" style="rounded=0;whiteSpace=wrap;html=1;fillColor=#3399FF;" vertex="1" parent="1">
          <mxGeometry x="-1860" y="2240" width="140" height="40" as="geometry" />
        </mxCell>
        <mxCell id="WX2UYCiCcFjldHaah2Si-17" value="&lt;font style=&quot;font-size: 16px;&quot;&gt;Роздратованість&lt;/font&gt;" style="rounded=0;whiteSpace=wrap;html=1;" vertex="1" parent="1">
          <mxGeometry x="-1720" y="2240" width="140" height="40" as="geometry" />
        </mxCell>
        <mxCell id="WX2UYCiCcFjldHaah2Si-18" value="" style="endArrow=none;html=1;rounded=0;strokeWidth=8;strokeColor=#3399FF;" edge="1" parent="1">
          <mxGeometry width="50" height="50" relative="1" as="geometry">
            <mxPoint x="-1578" y="2286" as="sourcePoint" />
            <mxPoint x="-1860" y="2286" as="targetPoint" />
          </mxGeometry>
        </mxCell>
        <mxCell id="WX2UYCiCcFjldHaah2Si-19" value="" style="ellipse;whiteSpace=wrap;html=1;" vertex="1" parent="1">
          <mxGeometry x="-1630" y="2190" width="20" height="20" as="geometry" />
        </mxCell>
        <mxCell id="WX2UYCiCcFjldHaah2Si-20" value="" style="ellipse;whiteSpace=wrap;html=1;" vertex="1" parent="1">
          <mxGeometry x="-1600" y="2190" width="20" height="20" as="geometry" />
        </mxCell>
        <mxCell id="WX2UYCiCcFjldHaah2Si-21" value="" style="ellipse;whiteSpace=wrap;html=1;strokeColor=#3399FF;" vertex="1" parent="1">
          <mxGeometry x="-1570" y="2190" width="20" height="20" as="geometry" />
        </mxCell>
        <mxCell id="WX2UYCiCcFjldHaah2Si-22" value="&lt;font style=&quot;font-size: 20px;&quot;&gt;Профіль&lt;/font&gt;" style="rounded=0;whiteSpace=wrap;html=1;" vertex="1" parent="1">
          <mxGeometry x="-1890" y="2190" width="160" height="30" as="geometry" />
        </mxCell>
        <mxCell id="WX2UYCiCcFjldHaah2Si-24" value="" style="rounded=0;whiteSpace=wrap;html=1;" vertex="1" parent="1">
          <mxGeometry x="-2410" y="2180" width="360" height="600" as="geometry" />
        </mxCell>
        <mxCell id="WX2UYCiCcFjldHaah2Si-25" value="" style="rounded=0;whiteSpace=wrap;html=1;" vertex="1" parent="1">
          <mxGeometry x="-2370" y="2290" width="280" height="440" as="geometry" />
        </mxCell>
        <mxCell id="WX2UYCiCcFjldHaah2Si-26" value="&lt;font style=&quot;font-size: 35px;&quot;&gt;Роздратованість оточуючих&lt;/font&gt;" style="text;html=1;strokeColor=none;fillColor=none;align=center;verticalAlign=middle;whiteSpace=wrap;rounded=0;fontSize=36;" vertex="1" parent="1">
          <mxGeometry x="-2362.5" y="2310" width="265" height="160" as="geometry" />
        </mxCell>
        <mxCell id="WX2UYCiCcFjldHaah2Si-27" value="&lt;font style=&quot;font-size: 16px;&quot;&gt;Температура&lt;/font&gt;" style="rounded=0;whiteSpace=wrap;html=1;fillColor=#FFFFFF;" vertex="1" parent="1">
          <mxGeometry x="-2370" y="2240" width="140" height="40" as="geometry" />
        </mxCell>
        <mxCell id="WX2UYCiCcFjldHaah2Si-28" value="&lt;font style=&quot;font-size: 16px;&quot;&gt;Роздратованість&lt;/font&gt;" style="rounded=0;whiteSpace=wrap;html=1;fillColor=#3399FF;" vertex="1" parent="1">
          <mxGeometry x="-2230" y="2240" width="140" height="40" as="geometry" />
        </mxCell>
        <mxCell id="WX2UYCiCcFjldHaah2Si-29" value="" style="endArrow=none;html=1;rounded=0;strokeWidth=8;strokeColor=#3399FF;" edge="1" parent="1">
          <mxGeometry width="50" height="50" relative="1" as="geometry">
            <mxPoint x="-2088" y="2286" as="sourcePoint" />
            <mxPoint x="-2370" y="2286" as="targetPoint" />
          </mxGeometry>
        </mxCell>
        <mxCell id="WX2UYCiCcFjldHaah2Si-30" value="&lt;span style=&quot;font-size: 22px;&quot;&gt;У даний момент, люди навколо вас не роздратовані через температуру&lt;/span&gt;" style="text;html=1;strokeColor=none;fillColor=none;align=center;verticalAlign=middle;whiteSpace=wrap;rounded=0;" vertex="1" parent="1">
          <mxGeometry x="-2320" y="2510" width="200" height="110" as="geometry" />
        </mxCell>
        <mxCell id="WX2UYCiCcFjldHaah2Si-31" value="" style="ellipse;whiteSpace=wrap;html=1;" vertex="1" parent="1">
          <mxGeometry x="-2140" y="2190" width="20" height="20" as="geometry" />
        </mxCell>
        <mxCell id="WX2UYCiCcFjldHaah2Si-32" value="" style="ellipse;whiteSpace=wrap;html=1;" vertex="1" parent="1">
          <mxGeometry x="-2110" y="2190" width="20" height="20" as="geometry" />
        </mxCell>
        <mxCell id="WX2UYCiCcFjldHaah2Si-33" value="" style="ellipse;whiteSpace=wrap;html=1;strokeColor=#3399FF;" vertex="1" parent="1">
          <mxGeometry x="-2080" y="2190" width="20" height="20" as="geometry" />
        </mxCell>
        <mxCell id="WX2UYCiCcFjldHaah2Si-34" value="&lt;font style=&quot;font-size: 20px;&quot;&gt;Профіль&lt;/font&gt;" style="rounded=0;whiteSpace=wrap;html=1;" vertex="1" parent="1">
          <mxGeometry x="-2400" y="2190" width="160" height="30" as="geometry" />
        </mxCell>
        <mxCell id="WX2UYCiCcFjldHaah2Si-36" value="" style="curved=1;endArrow=classic;html=1;rounded=0;exitX=0;exitY=0.5;exitDx=0;exitDy=0;entryX=0;entryY=0.5;entryDx=0;entryDy=0;" edge="1" parent="1" source="WX2UYCiCcFjldHaah2Si-27" target="WX2UYCiCcFjldHaah2Si-12">
          <mxGeometry width="50" height="50" relative="1" as="geometry">
            <mxPoint x="-1620" y="2410" as="sourcePoint" />
            <mxPoint x="-1920" y="2130" as="targetPoint" />
            <Array as="points">
              <mxPoint x="-2460" y="2270" />
              <mxPoint x="-2470" y="2100" />
              <mxPoint x="-2300" y="2060" />
              <mxPoint x="-1980" y="2090" />
              <mxPoint x="-1990" y="2480" />
            </Array>
          </mxGeometry>
        </mxCell>
      </root>
    </mxGraphModel>
  </diagram>
</mxfile>
